<svg xmlns="http://www.w3.org/2000/svg" version="1.1" viewBox="-5.0 -10.0 110.0 135.0">
 <path d="m100 50-9.6133-9.6133c-2.0586-2.0586-4.5547-3.3789-7.1836-4.1016 1.3594-2.375 2.1523-5.1211 2.1523-8.0469v-13.594h-13.594c-2.9258 0-5.6641 0.78906-8.0352 2.1445-0.73437-2.6797-2.0938-5.1602-4.1094-7.1758l-9.6172-9.6133-9.6133 9.6133c-2.0195 2.0195-3.3711 4.4961-4.1094 7.1758-2.3711-1.3594-5.1133-2.1445-8.0391-2.1445h-13.598v13.594c0 2.9258 0.78906 5.668 2.1484 8.0391-2.6797 0.73438-5.1562 2.0938-7.1758 4.1094l-9.6133 9.6133 9.6133 9.6133c2.0156 2.0156 4.4961 3.3711 7.1758 4.1094-1.3594 2.375-2.1484 5.1172-2.1484 8.0391v13.594l13.598-0.003907c2.9258 0 5.6641-0.78906 8.0391-2.1445 0.73438 2.6797 2.0938 5.1602 4.1094 7.1758l9.6133 9.6172 9.6133-9.6133c2.0156-2.0156 3.3711-4.4961 4.1094-7.1758 2.3711 1.3555 5.1133 2.1445 8.0352 2.1445h13.598l-0.003907-13.594c0-2.9297-0.79297-5.6719-2.1523-8.0469 2.6289-0.71875 5.125-2.0391 7.1836-4.1016zm-43.793 14.992c-3.8984-2.0078-8.5234-2.0078-12.414 0-1.3359-4.1719-4.6055-7.4414-8.7773-8.7812 0.98828-1.9023 1.5664-4.0039 1.5664-6.2109s-0.57812-4.3086-1.5664-6.2109c4.1719-1.3359 7.4414-4.6094 8.7773-8.7812 1.9492 1.0039 4.0664 1.5664 6.2109 1.5664 2.1406 0 4.2617-0.5625 6.207-1.5664 1.3359 4.1758 4.6094 7.4453 8.7852 8.7812-2.0078 3.8945-2.0078 8.5234 0 12.422-4.1797 1.3359-7.4531 4.6055-8.7891 8.7812zm15.555-42.891h6.1406l-0.003906 6.1367c0 4.8516-3.9492 8.8008-8.8008 8.8008-3.3867 0-6.1406-2.7578-6.1406-6.1406 0.003907-4.8516 3.9492-8.7969 8.8047-8.7969zm-26.102-7.2188 4.3398-4.3438 4.3398 4.3398c3.4336 3.4336 3.4336 9.0156 0 12.449-2.3906 2.3906-6.293 2.3906-8.6836 0-3.4297-3.4297-3.4297-9.0156 0.003906-12.445zm-23.562 7.2188h6.1406c4.8516 0 8.8008 3.9492 8.8008 8.8008 0 3.3828-2.7578 6.1406-6.1406 6.1406-4.8516 0-8.8008-3.9492-8.8008-8.8008l0.003906-6.1406zm-11.559 27.898 4.3398-4.3398c3.4336-3.4375 9.0117-3.4336 12.445 0 1.1602 1.1602 1.8008 2.7031 1.8008 4.3398s-0.63672 3.1836-1.8008 4.3398c-3.4336 3.4336-9.0156 3.4297-12.445 0zm17.699 27.898h-6.1406v-6.1367c0-4.8516 3.9492-8.8008 8.8008-8.8008 3.3867 0 6.1406 2.7578 6.1406 6.1406 0 4.8516-3.9492 8.7969-8.8008 8.7969zm26.102 7.2188-4.3398 4.3438-4.3398-4.3398c-3.4336-3.4336-3.4336-9.0156 0-12.449 1.1953-1.1953 2.7695-1.793 4.3398-1.793s3.1445 0.59766 4.3398 1.793c3.4336 3.4297 3.4336 9.0156 0 12.445zm23.559-7.2188h-6.1367c-4.8516 0-8.8008-3.9492-8.8008-8.8008 0-3.3828 2.7578-6.1406 6.1406-6.1406 4.8516 0 8.8008 3.9492 8.8008 8.8008zm7.2188-23.559c-3.4336 3.4336-9.0156 3.4336-12.449 0-2.3906-2.3906-2.3906-6.293 0-8.6836 1.7148-1.7148 3.9688-2.5742 6.2227-2.5742 2.2578 0 4.5078 0.85938 6.2227 2.5742l4.3398 4.3398z"/>
<text x="0.0" y="117.5" font-size="5.0" font-weight="bold" font-family="Arbeit Regular, Helvetica, Arial-Unicode, Arial, Sans-serif" fill="#000000">Created by dhtgicon</text><text x="0.0" y="122.5" font-size="5.0" font-weight="bold" font-family="Arbeit Regular, Helvetica, Arial-Unicode, Arial, Sans-serif" fill="#000000">from Noun Project</text></svg>