<svg xmlns="http://www.w3.org/2000/svg" viewBox="0 0 100 125" x="0px" y="0px"><g data-name="zoo"><path d="M23.12994,32.70239v-9.57245h9.57239c.37775,0,.75079,.01996,1.11829,.05859,.3891-2.21844,1.20453-4.37665,2.44635-6.3429-1.25476-.28339-2.56012-.43323-3.90051-.43323h-15.95404v15.9541c0,1.34039,.14984,2.64575,.43323,3.90051,1.96625-1.24182,4.12439-2.05725,6.34283-2.44635-.03857-.36755-.05853-.7406-.05853-1.11829Z"/><path d="M18.76874,56.76874l-6.76874-6.76874,6.76874-6.76874c.26703-.26709,.54498-.51678,.83215-.74933-1.29358-1.84375-2.24304-3.94641-2.75525-6.2149-1.08765,.68695-2.11664,1.50397-3.06445,2.45178L2.5,50l11.28119,11.28119c.94781,.94781,1.97681,1.76483,3.06445,2.45178,.51221-2.26849,1.46167-4.37115,2.75525-6.2149-.28717-.23254-.56512-.48224-.83215-.74933Z"/><path d="M32.70233,76.87006h-9.57239v-9.57245c0-.37769,.01996-.75073,.05853-1.11829-2.21838-.3891-4.37659-1.20453-6.34283-2.44635-.28339,1.25476-.43323,2.56012-.43323,3.90057v15.95404h15.95404c1.34039,0,2.64575-.14984,3.90051-.43323-1.24182-1.96625-2.05725-4.12445-2.44635-6.3429-.36749,.03864-.74054,.05859-1.11829,.05859Z"/><path d="M56.76874,81.23126l-6.76874,6.76874-6.76874-6.76874c-.26709-.26709-.51678-.54498-.74933-.83209-1.84375,1.29352-3.94647,2.24298-6.21497,2.75519,.68695,1.08765,1.50397,2.11664,2.45178,3.06445l11.28125,11.28119,11.28119-11.28119c.94781-.94781,1.76489-1.97687,2.45178-3.06445-2.26849-.51227-4.37115-1.46167-6.2149-2.75519-.23254,.28711-.48224,.565-.74933,.83209Z"/><path d="M76.87006,67.29761v9.57245h-9.57245c-.37775,0-.75073-.01996-1.11823-.05859-.3891,2.21844-1.20459,4.37659-2.44641,6.3429,1.25476,.28333,2.56012,.43323,3.90057,.43323h15.95404v-15.95404c0-1.34045-.1499-2.64581-.43323-3.90057-1.96631,1.24188-4.12445,2.05731-6.3429,2.44641,.03864,.36749,.05859,.74054,.05859,1.11823Z"/><path d="M97.5,50l-11.28119-11.28119c-.94781-.94781-1.97681-1.76489-3.06445-2.45178-.51221,2.26849-1.46173,4.37115-2.75525,6.21497,.28717,.23254,.56506,.48218,.83215,.74927l6.76874,6.76874-6.76874,6.76874c-.26709,.26709-.54498,.51678-.83215,.74933,1.29358,1.84375,2.24298,3.94641,2.75525,6.2149,1.08759-.68689,2.11664-1.50397,3.06445-2.45178l11.28119-11.28119Z"/><path d="M67.29761,23.12994h9.57245v9.57245c0,.37769-.01996,.75073-.05859,1.11823,2.21844,.3891,4.37665,1.20453,6.3429,2.44641,.28339-1.25476,.43323-2.56012,.43323-3.90051v-15.9541h-15.95404c-1.34045,0-2.64581,.1499-3.90057,.43323,1.24182,1.96631,2.05725,4.12445,2.44635,6.3429,.36749-.03864,.74054-.05859,1.11829-.05859Z"/><path d="M76.81146,33.82062c-5.46985-.95929-11.3053,.67322-15.53027,4.89819,4.22498-4.22498,5.85748-10.06049,4.89813-15.53027-2.45001,.25739-4.65094,1.35089-6.31219,2.99005-.01562-2.3338-.79865-4.66327-2.34906-6.5777-4.54614,3.18939-7.51807,8.47009-7.51807,14.44507,0-5.97498-2.97192-11.25568-7.51807-14.44507-1.55042,1.91443-2.3335,4.2439-2.34912,6.5777-1.66125-1.63916-3.86212-2.73267-6.31219-2.99005-.95929,5.46979,.67316,11.3053,4.89813,15.53027-4.22498-4.22498-10.06042-5.85748-15.53027-4.89813,.25739,2.45001,1.35095,4.65088,2.99011,6.31219-2.3338,.01562-4.66327,.79858-6.5777,2.34906,3.18939,4.54614,8.47009,7.51807,14.44507,7.51807-5.97498,0-11.25568,2.97192-14.44507,7.51807,1.91443,1.55048,4.2439,2.33344,6.5777,2.34906-1.63916,1.66132-2.73273,3.86218-2.99011,6.31219,5.46985,.95935,11.3053-.67316,15.53027-4.89813-4.22491,4.22498-5.85742,10.06049-4.89813,15.53027,2.45001-.25739,4.65094-1.35089,6.31219-2.99005,.01569,2.3338,.79871,4.66327,2.34912,6.57776,4.54614-3.18939,7.51807-8.47009,7.51807-14.44513,0,5.97504,2.97192,11.25574,7.51807,14.44513,1.55042-1.91449,2.33344-4.24396,2.34906-6.57776,1.66125,1.63916,3.86218,2.73267,6.31226,2.99005,.95929-5.46979-.67322-11.3053-4.89819-15.53027,4.22498,4.22498,10.06042,5.85748,15.53027,4.89819-.25739-2.45001-1.35089-4.65094-2.99005-6.31226,2.3338-.01562,4.66327-.79858,6.5777-2.34906-3.18933-4.54614-8.47009-7.51807-14.44507-7.51807,5.97498,0,11.25568-2.97192,14.44507-7.51801-1.91443-1.55048-4.24396-2.3335-6.5777-2.34912,1.63916-1.66132,2.73267-3.86224,2.99005-6.31226Zm-17.31146,16.17938l6.71753,6.71753h-9.5v9.5l-6.71753-6.71753-6.71753,6.71753v-9.5h-9.5l6.71753-6.71753-6.71753-6.71753h9.5v-9.49994l6.71753,6.71747,6.71753-6.71747v9.49994h9.5l-6.71753,6.71753Z"/><path d="M43.23126,18.76874l6.76874-6.76874,6.76874,6.76874c.26709,.26709,.51678,.54498,.74933,.83215,1.84375-1.29358,3.94641-2.24298,6.2149-2.75525-.68689-1.08759-1.50397-2.11658-2.45178-3.06439L50,2.5l-11.28125,11.28125c-.94781,.94781-1.76483,1.97675-2.45178,3.06439,2.26849,.51221,4.37122,1.46167,6.21497,2.75525,.23254-.28717,.48224-.56506,.74933-.83215Z"/></g><text x="0" y="115" fill="#000000" font-size="5px" font-weight="bold" font-family="'Helvetica Neue', Helvetica, Arial-Unicode, Arial, Sans-serif">Created by Eliricon</text><text x="0" y="120" fill="#000000" font-size="5px" font-weight="bold" font-family="'Helvetica Neue', Helvetica, Arial-Unicode, Arial, Sans-serif">from the Noun Project</text></svg>