<svg xmlns="http://www.w3.org/2000/svg" xmlns:xlink="http://www.w3.org/1999/xlink" version="1.1" x="0px" y="0px" viewBox="0 0 512 640" style="enable-background:new 0 0 512 512;" xml:space="preserve"><g><path d="M291.89,83.91l2.76-0.57c46.06-9.44,37.11-59.31,37.02-59.81l-0.62-3.23l-3.16,0.9c-0.49,0.14-49.05,14.6-36.74,59.98   L291.89,83.91z"/><path d="M217.35,83.35l2.76,0.57l0.74-2.72c12.31-45.37-36.25-59.84-36.74-59.98l-3.16-0.9l-0.61,3.23   C180.24,24.04,171.29,73.91,217.35,83.35z"/><path d="M101.89,287.23l1.99-2l-1.87-2.11c-31.2-35.17-69.92-2.49-70.3-2.15l-2.49,2.15l2.36,2.28   c0.25,0.24,17.18,16.26,38.38,16.26C80.08,301.66,91.18,298.01,101.89,287.23z"/><path d="M139.77,347.4l-2.72,0.72c-45.45,12.03-33.7,61.31-33.57,61.81l0.8,3.19l3.1-1.08c0.48-0.17,48.14-17.36,33.29-61.96   L139.77,347.4z"/><path d="M446.79,334.37c-4.16-7.99-12.57-19.51-29.07-29.04c-13.83-7.98-28.27-9.18-45.31-4.41c-3.89-20.42-3.06-48.15-0.06-85.16   c0.73-8.98,1.4-22.27,0.81-36.9c6.69,4.7,12.67,9.48,17.89,14.3l-0.29,0.64c0.59,0.27,1.18,0.51,1.77,0.75   c4.89,4.66,9.08,9.34,12.51,14.02c-27.63,29.96-6.16,66.16-5.94,66.52l1.93,3.17l2.7-2.55c14.44-13.67,20.5-28.6,17.99-44.38   c-1.77-11.15-8.03-22.65-18.23-34c1.24,0.13,2.47,0.2,3.7,0.2c6.58,0,13.06-1.83,19.4-5.49c30.17-17.42,38.08-16.75,54.61-13.4   l5.58,1.13l-2.22-5.24c-0.38-0.91-8.61-19.93-25.22-26.47c6.42-5.1,16.44-15.9,21.73-36.1l0.75-2.87l-2.86-0.78   c-20.14-5.52-34.5-2.23-42.13,0.77c2.64-17.66-9.72-34.29-10.31-35.08l-3.43-4.54l-1.81,5.4c-5.36,15.99-8.73,23.18-38.91,40.6   c-7.62,4.4-13.04,10.31-16.25,17.64c-4.25-13.74-10.81-25.94-20.76-34.01c-12.4-10.06-28.36-12.28-47.43-6.61l-3.56,1.06l1.78,3.26   c0.18,0.34,16.58,29.53,48.31,29.53c3.86,0,7.96-0.43,12.27-1.41c2.55,5.8,4.66,12.39,6.31,19.69c-0.04,0.33-0.09,0.66-0.13,1   l0.35,0.04c1.46,6.66,2.54,13.89,3.24,21.65c-9.69-6.12-20.5-12.03-32.35-17.66c-33.55-15.91-57.98-29.05-73.72-42.63   c12.65-12.38,18.84-25.48,18.84-41.45c0-19.05-5.77-32.1-10.61-39.7c-5.33-8.37-10.73-12.17-10.96-12.32L256,12.35l-1.71,1.19   c-0.23,0.16-5.63,3.96-10.96,12.32c-4.84,7.59-10.61,20.64-10.61,39.7c0,15.96,6.19,29.07,18.84,41.45   c-15.74,13.58-40.17,26.73-73.72,42.63c-11.86,5.62-22.67,11.54-32.35,17.66c0.7-7.76,1.78-14.99,3.24-21.65l0.35-0.04   c-0.03-0.34-0.08-0.66-0.13-1c1.65-7.3,3.76-13.89,6.32-19.69c39.76,8.95,60.37-27.74,60.58-28.12l1.78-3.26l-3.56-1.06   c-19.06-5.67-35.02-3.45-47.43,6.61c-9.94,8.06-16.5,20.27-20.76,34.01c-3.2-7.33-8.63-13.24-16.25-17.64   c-30.17-17.42-33.55-24.6-38.91-40.6l-1.81-5.4l-3.43,4.54c-0.59,0.79-12.95,17.42-10.31,35.08c-7.63-3.01-21.99-6.29-42.13-0.77   l-2.86,0.78l0.75,2.87c5.29,20.2,15.31,30.99,21.73,36.1c-16.61,6.54-24.84,25.56-25.22,26.47l-2.22,5.24l5.58-1.13   c16.53-3.36,24.44-4.02,54.61,13.4c6.34,3.66,12.83,5.49,19.4,5.49c1.23,0,2.46-0.07,3.7-0.2c-10.2,11.35-16.46,22.85-18.23,34   c-2.51,15.77,3.55,30.7,17.99,44.38l2.7,2.55l1.93-3.17c0.22-0.37,21.69-36.57-5.94-66.53c3.43-4.67,7.61-9.36,12.51-14.01   c0.59-0.24,1.18-0.48,1.77-0.75l-0.29-0.64c5.22-4.82,11.2-9.6,17.89-14.3c-0.59,14.63,0.08,27.92,0.81,36.9   c3,37.01,3.83,64.74-0.06,85.16c-17.04-4.76-31.49-3.57-45.31,4.41c-16.5,9.53-24.92,21.05-29.07,29.04   c-4.58,8.8-5.17,15.38-5.19,15.65l-0.17,2.07l1.88,0.89c0.25,0.12,6.24,2.89,16.15,3.33c9,0.39,23.18-1.13,39.68-10.66   c13.83-7.98,22.08-19.89,26.48-37.04c19.63,6.84,43.23,21.43,73.78,42.53c7.41,5.12,18.58,12.35,31.55,19.15   c-15.29,7.09-29.36,11.41-41.67,12.76c-12.13-38.9-54.21-38.42-54.65-38.4l-3.71,0.08l0.86,3.61   c4.62,19.35,14.52,32.05,29.44,37.77c6.19,2.37,12.89,3.4,19.86,3.4c6.55,0,13.33-0.91,20.15-2.47   c-5.24,6.63-7.88,14.62-7.88,23.87c0,34.84-4.53,41.36-15.7,53.99l-3.77,4.26l5.65,0.7c0.98,0.12,21.56,2.5,35.54-8.61   c1.21,8.11,5.55,22.18,20.39,36.87l2.11,2.09l2.11-2.09c14.85-14.68,19.18-28.76,20.39-36.87c13.97,11.11,34.56,8.73,35.54,8.61   l5.65-0.7l-3.77-4.27c-11.17-12.63-15.7-19.15-15.7-53.99c0-9.25-2.65-17.23-7.88-23.87c6.82,1.56,13.61,2.47,20.15,2.47   c6.97,0,13.67-1.03,19.86-3.4c14.91-5.72,24.82-18.42,29.44-37.77l0.86-3.61l-3.71-0.08c-0.42-0.02-42.51-0.5-54.64,38.4   c-12.31-1.35-26.38-5.66-41.67-12.76c12.97-6.8,24.14-14.03,31.55-19.15c30.56-21.1,54.15-35.69,73.78-42.53   c4.4,17.14,12.65,29.05,26.48,37.04c16.5,9.53,30.69,11.06,39.68,10.66c9.91-0.44,15.9-3.21,16.15-3.33l1.88-0.89l-0.17-2.07   C451.96,349.75,451.37,343.17,446.79,334.37z M114.57,340.46c-23.98,13.85-42.24,9.85-48.21,7.88c1.28-6.17,6.95-23.97,30.93-37.81   c12.28-7.09,25.39-8.1,41.01-3.72C134.27,322.52,126.85,333.37,114.57,340.46z M369.11,144.61c1.47-10.51,6.93-18.56,16.26-23.95   c27.12-15.66,34.04-23.7,39.51-38.01c3.78,6.8,9.07,19.41,4.57,31l-3.52,9.1l8.04-5.55c0.04-0.03,3.96-2.7,11.23-4.41   c6.25-1.47,16.25-2.48,29.24,0.58c-3.85,12.78-9.72,20.94-14.12,25.62c-5.11,5.44-9.39,7.5-9.42,7.51l-9.01,4.17l9.81,1.52   c12.24,1.89,20.53,12.78,24.54,19.46c-15.13-2.41-25.55-0.44-52.67,15.21c-9.06,5.23-18.47,6.04-28.02,2.44   c-6.52-6.09-14.16-12.1-22.83-17.95C372.12,162.52,370.99,153.41,369.11,144.61z M238.72,65.55c0-27.7,12.59-41.51,17.28-45.69   c4.7,4.19,17.28,18.01,17.28,45.69c0,14.18-5.68,26.04-17.28,37.38C244.4,91.59,238.72,79.74,238.72,65.55z M116.44,189.29   c-9.54,3.6-18.96,2.79-28.02-2.44c-27.12-15.66-37.53-17.63-52.67-15.21c4.01-6.68,12.3-17.57,24.54-19.46l9.64-1.5l-8.83-4.18   c-0.04-0.02-4.32-2.08-9.43-7.52c-4.4-4.68-10.27-12.83-14.12-25.62c13-3.06,22.99-2.05,29.24-0.58c7.26,1.71,11.19,4.38,11.22,4.4   l8.12,5.71l-3.59-9.25c-4.48-11.55,0.8-24.18,4.58-30.98c5.48,14.31,12.4,22.35,39.51,38c9.33,5.39,14.79,13.44,16.26,23.95   c-1.88,8.8-3.01,17.91-3.63,26.73C130.59,177.19,122.95,183.2,116.44,189.29z M280.44,383.71l-0.12,0.17   c9.22,6.62,13.9,15.72,13.9,27.03c0,31.32,3.5,41.33,13.17,53.23c-7.78-0.12-21.35-1.85-29.13-11.54l-6.12-7.6l0.79,9.74   c0,0.05,0.36,4.78-1.8,11.93c-1.85,6.15-5.98,15.31-15.12,25.04c-9.15-9.73-13.27-18.89-15.12-25.04   c-2.15-7.14-1.8-11.88-1.8-11.91l0.89-9.88l-6.22,7.74c-7.76,9.66-21.34,11.39-29.12,11.53c9.66-11.9,13.16-21.91,13.16-53.22   c0-11.32,4.68-20.41,13.9-27.03l-0.13-0.18c8.39-2.75,16.66-6.26,24.44-10.06C263.78,377.45,272.05,380.96,280.44,383.71z    M366.63,302.72c-20.46,7.04-44.72,21.97-75.87,43.49c-12.03,8.31-23.68,15.29-34.76,20.88c-11.08-5.59-22.73-12.57-34.76-20.88   c-31.15-21.52-55.41-36.45-75.87-43.49c4.13-21.24,3.33-49.71,0.27-87.45c-1.18-14.58-1.4-28.15-0.7-40.55   c10.38-6.8,22.25-13.4,35.47-19.67c34.21-16.22,59.27-29.76,75.6-43.96c16.33,14.2,41.38,27.74,75.6,43.96   c13.21,6.26,25.08,12.87,35.47,19.67c0.7,12.39,0.48,25.97-0.7,40.55C363.3,253.01,362.5,281.48,366.63,302.72z M397.43,340.46   c-12.28-7.09-19.71-17.94-23.73-33.65c15.62-4.38,28.73-3.37,41.01,3.72c23.99,13.85,29.65,31.66,30.93,37.81   C439.67,350.32,421.41,354.3,397.43,340.46z"/><path d="M374.96,348.12l-2.72-0.72l-0.89,2.67c-14.86,44.6,32.8,61.79,33.29,61.96l3.1,1.08l0.8-3.19   C408.65,409.43,420.4,360.15,374.96,348.12z"/><path d="M409.99,283.12l-1.87,2.11l1.99,2c10.71,10.78,21.81,14.44,31.93,14.44c21.19,0,38.13-16.02,38.38-16.26l2.36-2.28   l-2.49-2.15C479.91,280.64,441.19,247.96,409.99,283.12z"/><path d="M256,148.75c-50.02,0-90.72,40.7-90.72,90.72c0,50.02,40.7,90.72,90.72,90.72s90.72-40.7,90.72-90.72   C346.72,189.45,306.02,148.75,256,148.75z M313.01,176.86c-17.43,9.33-37.11,14.26-57.01,14.26c-19.9,0-39.57-4.94-57.01-14.26   c15.06-13.72,35.07-22.1,57.01-22.1C277.93,154.75,297.95,163.13,313.01,176.86z M310.72,184.75   c-8.11,16.99-12.37,35.76-12.37,54.72s4.26,37.73,12.37,54.72c-16.99-8.11-35.76-12.37-54.72-12.37   c-18.96,0-37.73,4.26-54.72,12.37c8.11-16.99,12.37-35.76,12.37-54.72s-4.26-37.73-12.37-54.72c16.99,8.11,35.76,12.37,54.72,12.37   C274.96,197.12,293.73,192.86,310.72,184.75z M197.91,178.2C197.91,178.2,197.91,178.2,197.91,178.2L197.91,178.2   C197.91,178.2,197.91,178.2,197.91,178.2z M171.28,239.47c0-21.93,8.38-41.95,22.1-57.01c9.33,17.43,14.26,37.11,14.26,57.01   c0,19.9-4.94,39.57-14.26,57.01C179.66,281.42,171.28,261.41,171.28,239.47z M198.99,302.09c17.43-9.33,37.11-14.26,57.01-14.26   c19.9,0,39.57,4.94,57.01,14.26c-15.06,13.72-35.07,22.1-57.01,22.1C234.07,324.19,214.05,315.81,198.99,302.09z M318.62,296.48   c-9.33-17.44-14.26-37.11-14.26-57.01c0-19.9,4.94-39.57,14.26-57.01c13.72,15.06,22.1,35.07,22.1,57.01   C340.72,261.41,332.34,281.42,318.62,296.48z"/></g><text x="0" y="527" fill="#000000" font-size="5px" font-weight="bold" font-family="'Helvetica Neue', Helvetica, Arial-Unicode, Arial, Sans-serif">Created by iconfield</text><text x="0" y="532" fill="#000000" font-size="5px" font-weight="bold" font-family="'Helvetica Neue', Helvetica, Arial-Unicode, Arial, Sans-serif">from the Noun Project</text></svg>