<svg xmlns="http://www.w3.org/2000/svg" version="1.1" viewBox="-5.0 -10.0 110.0 135.0">
 <path d="m89.676 60.328 10.312-10.316-10.312-10.312c-1.6133-1.6133-3.4492-2.957-5.4023-4.0508 4.6055-6.6914 7.3125-14.785 7.3125-23.504v-3.7266h-3.7266c-8.7109 0-16.801 2.7031-23.488 7.3008-1.0898-1.9492-2.4414-3.7656-4.0586-5.3828l-10.32-10.32-10.32 10.32c-1.6211 1.6211-2.9727 3.4414-4.0586 5.3828-6.6914-4.5938-14.781-7.2969-23.492-7.2969h-3.7266v3.7266c0 8.7148 2.707 16.809 7.3086 23.5-1.9297 1.0742-3.7539 2.4102-5.3906 4.0469l-10.32 10.32 10.32 10.32c1.6211 1.6211 3.4414 2.9727 5.3828 4.0586-4.5977 6.6914-7.3047 14.777-7.3047 23.492v3.7266l3.7305 0.003907c8.7188 0 16.812-2.707 23.508-7.3164 1.0977 1.957 2.4375 3.793 4.0469 5.3984l10.312 10.316 10.316-10.316c1.6367-1.6367 2.9727-3.4531 4.0547-5.3945 6.6914 4.6016 14.781 7.3086 23.5 7.3086h3.7266v-3.7266c0-8.7188-2.707-16.812-7.3164-23.508 1.9609-1.0938 3.793-2.4375 5.4062-4.0508zm-30.398 17.047c-0.21094 0.71094-0.47656 1.3984-0.78125 2.0664-0.82812 1.8281-1.9805 3.5039-3.4648 4.9844l-5.043 5.043-5.043-5.043c-1.4805-1.4805-2.6328-3.1484-3.4648-4.9844-0.30469-0.67578-0.57422-1.3711-0.78906-2.0977-0.82031-2.6758-0.91406-5.4414-0.41406-8.0898 0.57422-3.0547 1.9844-5.9336 4.1523-8.3086 0.17578-0.19531 0.33203-0.40234 0.51562-0.59375l5.0391-5.0391 5.0391 5.0391c0.1875 0.1875 0.33984 0.39844 0.51562 0.59375 2.1641 2.375 3.5703 5.2461 4.1484 8.3047 0.50781 2.6602 0.41406 5.4375-0.41016 8.125zm-19.32-49.738c0-2.4688 0.5625-4.8359 1.5547-7.0195 0.83203-1.832 1.957-3.5391 3.4258-5.0078l5.0469-5.0469 5.0547 5.043c1.4688 1.4688 2.5938 3.1758 3.4258 5.0078 0.99219 2.1836 1.5547 4.5508 1.5547 7.0195 0 1.0547-0.11719 2.0938-0.30469 3.1094-0.56641 3.0898-2.0078 5.9141-4.1484 8.2734-0.1875 0.20703-0.33203 0.44922-0.53125 0.64844l-2.1484 2.1484-2.8984 2.9023-2.8984-2.9023-2.1484-2.1484c-0.19922-0.19922-0.34375-0.44141-0.53125-0.64844-2.1406-2.3555-3.5781-5.1875-4.1484-8.2734-0.19141-1.0156-0.30469-2.0508-0.30469-3.1055zm-9.2422 12.652c3.0078 0.55469 5.8633 1.9688 8.2734 4.1484 0.20703 0.19141 0.44922 0.32812 0.65234 0.53125l5.0469 5.0469-2.9023 2.8984-2.1484 2.1484c-0.19922 0.19922-0.44141 0.34375-0.64844 0.53125-2.3555 2.1406-5.1875 3.5781-8.2773 4.1484-1.0156 0.1875-2.0508 0.30469-3.1055 0.30469-2.4688 0-4.8398-0.5625-7.0195-1.5586-1.832-0.83594-3.5391-1.9609-5.0078-3.4297l-5.0469-5.0469 5.0469-5.0469c1.4883-1.4883 3.2031-2.5938 5.0195-3.4102 3.1953-1.4453 6.7227-1.8945 10.117-1.2656zm46.613 19.02c-2.6797 0.81641-5.4492 0.91016-8.1016 0.41016-3.0508-0.57422-5.9258-1.9805-8.2969-4.1445-0.19531-0.17969-0.40625-0.33203-0.59766-0.51953l-5.0391-5.0391 2.8984-2.8984 2.1445-2.1406c0.1875-0.1875 0.39844-0.34375 0.59766-0.51953 2.375-2.168 5.2461-3.5742 8.3047-4.1484 2.6562-0.5 5.4297-0.39844 8.1211 0.42969 0.71094 0.21094 1.3945 0.47656 2.0664 0.78125 1.8281 0.82812 3.5 1.9805 4.9844 3.4648l5.043 5.0391-5.043 5.043c-1.4805 1.4805-3.1484 2.6328-4.9883 3.4648-0.67969 0.29297-1.375 0.56641-2.0938 0.77734zm6.5742-43.207c-0.73047 6.3242-3.2227 12.113-6.9375 16.898-3.4023-0.65625-6.8477-0.59375-10.145 0.17578 0.41406-1.8008 0.65234-3.6523 0.65234-5.543 0-1.5664-0.15625-3.1133-0.44531-4.6211 4.793-3.6953 10.566-6.1797 16.875-6.9102zm-67.832 0c6.3125 0.73047 12.086 3.2109 16.871 6.9102-0.28906 1.5078-0.44531 3.0508-0.44531 4.6211 0 1.8984 0.23828 3.7617 0.66016 5.5625-3.3398-0.77344-6.8047-0.86328-10.168-0.21875-3.6992-4.7852-6.1836-10.562-6.918-16.875zm0 67.832c0.73047-6.3125 3.2109-12.09 6.9141-16.871 1.5078 0.28906 3.0508 0.44141 4.6211 0.44141 1.8906 0 3.7422-0.23438 5.5391-0.65234-0.76953 3.2969-0.83203 6.7422-0.17578 10.145-4.7852 3.7109-10.57 6.1992-16.898 6.9375zm50.934-6.9414c0.65625-3.3984 0.59375-6.8477-0.17578-10.145 1.8086 0.42188 3.6562 0.66406 5.5273 0.66406 1.5352 0 3.0703-0.19922 4.6055-0.49609 3.7188 4.7969 6.2148 10.586 6.9492 16.914-6.332-0.73438-12.113-3.2227-16.906-6.9375z"/>
<text x="0.0" y="117.5" font-size="5.0" font-weight="bold" font-family="Arbeit Regular, Helvetica, Arial-Unicode, Arial, Sans-serif" fill="#000000">Created by dhtgicon</text><text x="0.0" y="122.5" font-size="5.0" font-weight="bold" font-family="Arbeit Regular, Helvetica, Arial-Unicode, Arial, Sans-serif" fill="#000000">from Noun Project</text></svg>