<svg xmlns="http://www.w3.org/2000/svg" viewBox="0 0 100.0063 125.007875" x="0px" y="0px"><g data-name="zoo"><path d="M18.79069,29.91009h0c0-6.14108,4.97832-11.11941,11.11939-11.11941h.00001c.43878,0,.8721,.0232,1.299,.06804,.45198-2.57692,1.39916-5.0839,2.84171-7.36795-1.45754-.32914-2.97385-.5032-4.53086-.5032h-.00007c-10.2351,0-18.53229,8.29719-18.53229,18.53229v.00007c0,1.55701,.1741,3.07335,.50324,4.5309,2.28405-1.44254,4.79096-2.38977,7.36792-2.84174-.04484-.4269-.06804-.86023-.06804-1.299Z"/><path d="M13.72467,57.86576l-.00003-.00003c-4.34237-4.34239-4.34237-11.38277,0-15.72516l.00003-.00003c.31024-.31024,.63306-.60031,.96664-.87044-1.50262-2.14176-2.60547-4.58417-3.2005-7.21927-1.26337,.79792-2.45867,1.74698-3.55964,2.84796l-.00003,.00003c-7.23732,7.23732-7.23731,18.97133,.00002,26.20864h.00001c1.10097,1.10099,2.29627,2.05005,3.55964,2.84797,.59503-2.6351,1.69791-5.07755,3.2005-7.21927-.33358-.27013-.6564-.56016-.96664-.8704Z"/><path d="M29.91009,81.21558h-.00001c-6.14107,0-11.11939-4.97832-11.11939-11.11939h0c0-.43879,.0232-.87211,.06804-1.29901-2.57692-.45198-5.08387-1.3992-7.36792-2.84174-.32914,1.45754-.50324,2.97389-.50324,4.53093v.00004c0,10.2351,8.29719,18.53229,18.53229,18.53229h.00007c1.55701,0,3.07332-.17407,4.53086-.5032-1.44254-2.28405-2.38977-4.79103-2.84174-7.36795-.4269,.04484-.86019,.06804-1.29897,.06804Z"/><path d="M57.86576,86.2816h0c-4.34239,4.3424-11.3828,4.3424-15.7252,0h0c-.31024-.31025-.60027-.63307-.8704-.96661-2.14172,1.50259-4.58424,2.60547-7.21934,3.2005,.79792,1.26337,1.74702,2.45867,2.84799,3.55964l.00005,.00005c7.23731,7.23729,18.9713,7.23729,26.2086-.00002l.00003-.00003c1.10097-1.10097,2.05007-2.29631,2.84799-3.55968-2.6351-.59503-5.07758-1.69788-7.21931-3.20047-.27013,.33355-.56016,.65636-.8704,.9666Z"/><path d="M81.21558,70.09617h0c0,6.14108-4.97832,11.11941-11.11939,11.11941h-.00001c-.43878,0-.87207-.0232-1.29897-.06804-.45198,2.57692-1.3992,5.08387-2.84174,7.36792,1.45754,.32914,2.97385,.50324,4.5309,.50324h.00004c10.2351,0,18.53229-8.29719,18.53229-18.53229v-.00004c0-1.55705-.1741-3.07335-.50324-4.5309-2.28405,1.44254-4.79099,2.38977-7.36792,2.84174,.04484,.4269,.06804,.86019,.06804,1.29897Z"/><path d="M92.07515,63.10746c7.23733-7.23731,7.23734-18.97132,.00002-26.20864l-.00003-.00003c-1.10097-1.10097-2.29627-2.05007-3.55964-2.84799-.59503,2.6351-1.69795,5.07758-3.20053,7.21934,.33358,.27013,.6564,.56016,.96664,.8704h0c4.34239,4.3424,4.34239,11.38281,0,15.72521h0c-.31024,.31025-.63306,.60028-.9666,.87041,1.50259,2.14172,2.60544,4.58421,3.20047,7.21931,1.26337-.79792,2.4587-1.74702,3.55968-2.84799h.00001Z"/><path d="M70.09617,18.79069h.00001c6.14107,0,11.11939,4.97832,11.11939,11.11939h0c0,.43879-.0232,.87208-.06804,1.29898,2.57692,.45198,5.0839,1.3992,7.36795,2.84174,.32914-1.45754,.5032-2.97385,.5032-4.53086v-.00007c0-10.2351-8.29719-18.53229-18.53229-18.53229h-.00004c-1.55705,0-3.07335,.1741-4.5309,.50324,1.44254,2.28405,2.38973,4.79099,2.84171,7.36792,.4269-.04484,.86023-.06804,1.299-.06804Z"/><path d="M42.14054,13.72467h0c4.34239-4.3424,11.3828-4.3424,15.7252,0h0c.31024,.31025,.60027,.63307,.8704,.96665,2.14172-1.50259,4.58421-2.60547,7.21931-3.2005-.79792-1.26337-1.74702-2.45867-2.84799-3.55964h-.00001c-7.23731-7.23734-18.97132-7.23735-26.20864-.00003l-.00003,.00003c-1.10097,1.10097-2.05007,2.29624-2.84799,3.55961,2.6351,.59503,5.07762,1.69795,7.21934,3.20053,.27013-.33358,.56016-.6564,.8704-.96664Z"/><path d="M85.315,58.73616c-3.70478-5.28079-9.83891-8.73301-16.77951-8.73301,6.9406,0,13.0746-3.45222,16.77944-8.73301-1.65287-1.33866-3.57213-2.18481-5.56184-2.53851-.81947-.14567-1.21984-1.11224-.7434-1.7947,1.15683-1.65704,1.9156-3.61251,2.13785-5.72787-6.3538-1.11434-13.13232,.78198-18.04007,5.68973,4.90775-4.90775,6.80404-11.68627,5.6897-18.04007-2.11534,.22223-4.07079,.98104-5.72781,2.13786-.68247,.47646-1.64904,.07609-1.79471-.7434-.35369-1.9897-1.19984-3.90897-2.53849-5.56188-5.28079,3.70485-8.73301,9.83891-8.73301,16.77951,0-6.9406-3.45222-13.07466-8.73301-16.77951-1.33866,1.65292-2.18483,3.5722-2.53853,5.56191-.14567,.81948-1.11225,1.21984-1.79471,.74339-1.65702-1.15682-3.61246-1.91565-5.72781-2.13789-1.11434,6.3538,.78194,13.13232,5.6897,18.04007-4.90775-4.90775-11.6863-6.80404-18.04007-5.6897,.22223,2.11534,.98106,4.07078,2.13788,5.7278,.47645,.68247,.07609,1.64904-.7434,1.79471-1.98971,.35368-3.90898,1.19983-5.5619,2.5385,3.70485,5.28079,9.83891,8.73304,16.77951,8.73304-6.9406,0-13.07466,3.45222-16.77951,8.73301,1.65291,1.33866,3.57218,2.18481,5.56188,2.53849,.81948,.14567,1.21985,1.11225,.7434,1.79471-1.15682,1.65701-1.91563,3.61247-2.13786,5.72781,6.35377,1.11434,13.13232-.78194,18.04007-5.6897-4.90772,4.90775-6.80408,11.68627-5.68973,18.04007,2.11536-.22223,4.07083-.98103,5.72787-2.13786,.68246-.47645,1.64903-.07608,1.7947,.74339,.3537,1.9897,1.19985,3.909,2.53851,5.56192,5.28079-3.70481,8.73301-9.83891,8.73301-16.77951,0,6.9406,3.45222,13.0747,8.73301,16.77951,1.33866-1.65292,2.18481-3.5722,2.5385-5.5619,.14567-.81948,1.11224-1.21985,1.7947-.7434,1.65702,1.15681,3.6125,1.91562,5.72785,2.13785,1.11434-6.3538-.78198-13.13232-5.68973-18.04007,4.90775,4.90775,11.68627,6.80408,18.04007,5.68973-.22226-2.11534-.98105-4.07082-2.13786-5.72785-.47644-.68247-.07607-1.64903,.7434-1.7947,1.98971-.35368,3.90898-1.19983,5.56191-2.5385Zm-27.50873,.90864v4.75811c0,1.63796-1.98036,2.45825-3.13857,1.30004l-3.3645-3.3645c-.71799-.71799-1.88209-.71799-2.60008,0l-3.3645,3.3645c-1.15821,1.15821-3.13857,.33792-3.13857-1.30004v-4.75811c0-1.01539-.82314-1.83853-1.83853-1.83853h-4.75811c-1.63796,0-2.45825-1.98036-1.30004-3.13857l3.3645-3.3645c.71799-.71799,.71799-1.88209,0-2.60008l-3.3645-3.3645c-1.15821-1.15821-.33792-3.13857,1.30004-3.13857h4.75811c1.01539,0,1.83853-.82314,1.83853-1.83853v-4.75812c0-1.63796,1.98036-2.45825,3.13857-1.30004l3.36451,3.36449c.71799,.71799,1.88208,.71799,2.60007,0l3.36451-3.36449c1.15821-1.15821,3.13857-.33791,3.13857,1.30004v4.75812c0,1.01539,.82314,1.83853,1.83853,1.83853h4.75811c1.63796,0,2.45825,1.98036,1.30004,3.13857l-3.3645,3.3645c-.71799,.71799-.71799,1.88209,0,2.60008l3.3645,3.3645c1.15821,1.15821,.33792,3.13857-1.30004,3.13857h-4.75811c-1.01539,0-1.83853,.82314-1.83853,1.83853Z"/></g><text x="0" y="115.0063" fill="#000000" font-size="5px" font-weight="bold" font-family="'Helvetica Neue', Helvetica, Arial-Unicode, Arial, Sans-serif">Created by Eliricon</text><text x="0" y="120.0063" fill="#000000" font-size="5px" font-weight="bold" font-family="'Helvetica Neue', Helvetica, Arial-Unicode, Arial, Sans-serif">from the Noun Project</text></svg>