<svg xmlns="http://www.w3.org/2000/svg" xmlns:xlink="http://www.w3.org/1999/xlink" version="1.1" x="0px" y="0px" viewBox="0 0 512 640" style="enable-background:new 0 0 512 512;" xml:space="preserve"><g><path d="M467.3,242.96c-7.2,0-13.04,5.84-13.04,13.04c0,7.2,5.84,13.04,13.04,13.04c7.2,0,13.04-5.84,13.04-13.04   C480.34,248.8,474.5,242.96,467.3,242.96z"/><circle cx="256" cy="44.7" r="13.04"/><path d="M44.7,242.96c-7.2,0-13.04,5.84-13.04,13.04c0,7.2,5.84,13.04,13.04,13.04c7.2,0,13.04-5.84,13.04-13.04   C57.75,248.8,51.91,242.96,44.7,242.96z"/><circle cx="256" cy="467.3" r="13.04"/><path d="M256,76.4c17.48,0,31.7-14.22,31.7-31.7c0-17.48-14.22-31.7-31.7-31.7s-31.7,14.22-31.7,31.7   C224.3,62.18,238.52,76.4,256,76.4z M256,19c14.17,0,25.7,11.53,25.7,25.7S270.17,70.4,256,70.4s-25.7-11.53-25.7-25.7   S241.83,19,256,19z"/><path d="M428.25,256c0-11.67,2.98-23.19,8.61-33.32c8.96-16.12,5.67-36.8-8-50.28l-0.31-0.31c-19.47-19.47-23.9-50.6-10.53-74.01   l5.45-9.54l-9.54,5.45c-23.41,13.37-54.53,8.94-74-10.53l-0.3-0.3c-13.49-13.68-34.17-16.97-50.29-8.01   c-10.13,5.63-21.65,8.61-33.32,8.61s-23.19-2.98-33.32-8.61c-16.12-8.96-36.8-5.67-50.29,8.01l-0.3,0.3   c-19.47,19.47-50.6,23.9-74,10.53l-9.54-5.45l5.45,9.54c13.37,23.41,8.94,54.53-10.53,74l-0.3,0.3   c-13.68,13.49-16.97,34.17-8.01,50.29c5.63,10.13,8.61,21.66,8.61,33.32s-2.98,23.19-8.61,33.32c-8.96,16.12-5.67,36.8,8,50.28   l0.31,0.31c19.47,19.47,23.9,50.6,10.53,74.01l-5.45,9.54l9.54-5.45c23.41-13.37,54.53-8.94,74.01,10.54l0.29,0.29   c8.41,8.53,19.62,13.02,30.77,13.02c6.73,0,13.45-1.64,19.52-5.01c10.13-5.63,21.65-8.61,33.32-8.61s23.19,2.98,33.32,8.61   c16.12,8.96,36.8,5.67,50.29-8.01l0.3-0.3c19.47-19.47,50.6-23.9,74-10.53l9.54,5.45l-5.45-9.54c-13.37-23.41-8.94-54.53,10.53-74   l0.3-0.3c13.68-13.49,16.97-34.17,8.01-50.29C431.22,279.19,428.25,267.67,428.25,256z M424.63,176.66   c11.77,11.6,14.64,29.32,6.98,43.1c-5.63,10.13-8.81,21.53-9.29,33.16c-23.23-1.29-41.73-20.58-41.73-44.12   c0-21.06,14.6-38.95,35-43.24c2.5,3.84,5.4,7.46,8.71,10.77L424.63,176.66z M373.67,389.16c-4.28-4.28-4.28-11.21,0-15.48   c4.28-4.28,11.21-4.28,15.48,0c4.28,4.28,4.28,11.21,0,15.48C384.88,393.44,377.95,393.44,373.67,389.16z M122.84,373.67   c4.28-4.28,11.21-4.28,15.48,0s4.28,11.21,0,15.48c-4.28,4.28-11.21,4.28-15.48,0C118.56,384.88,118.56,377.95,122.84,373.67z    M138.33,122.84c4.28,4.28,4.28,11.21,0,15.48c-4.28,4.28-11.21,4.28-15.48,0c-4.28-4.28-4.28-11.21,0-15.48   C127.12,118.56,134.05,118.56,138.33,122.84z M259.09,252.91c1.29-24.88,18.03-47.29,44.24-63.36c1.86,4.21,4.48,8.08,7.76,11.36   c3.28,3.28,7.15,5.91,11.36,7.76C306.38,234.89,283.97,251.62,259.09,252.91z M252.91,252.91c-24.88-1.29-47.29-18.03-63.36-44.24   c4.21-1.86,8.08-4.48,11.36-7.76c3.28-3.28,5.91-7.15,7.76-11.36C234.88,205.62,251.62,228.03,252.91,252.91z M196.66,196.66   c-2.92,2.92-6.39,5.22-10.16,6.78c-4.99-8.98-9.28-18.95-12.72-29.67c10.72,3.45,20.69,7.73,29.67,12.72   C201.88,190.28,199.58,193.74,196.66,196.66z M186.5,308.56c3.78,1.57,7.25,3.87,10.16,6.78c2.92,2.92,5.22,6.39,6.78,10.17   c-8.98,4.99-18.95,9.28-29.67,12.72C177.22,327.5,181.5,317.54,186.5,308.56z M200.9,311.1c-3.28-3.28-7.15-5.91-11.36-7.76   c16.08-26.22,38.49-42.96,63.36-44.24c-1.29,24.88-18.03,47.29-44.24,63.37C206.81,318.24,204.18,314.38,200.9,311.1z    M259.09,259.09c24.88,1.29,47.29,18.03,63.36,44.24c-4.21,1.86-8.08,4.48-11.36,7.76c-3.28,3.28-5.91,7.15-7.76,11.36   C277.11,306.38,260.38,283.97,259.09,259.09z M315.34,315.34c2.92-2.92,6.39-5.22,10.17-6.78c4.99,8.98,9.28,18.95,12.72,29.67   c-10.72-3.45-20.69-7.73-29.67-12.72C310.12,321.73,312.42,318.26,315.34,315.34z M325.5,203.45c-3.78-1.57-7.25-3.87-10.16-6.78   c-2.92-2.92-5.22-6.39-6.78-10.16c8.98-4.99,18.95-9.28,29.67-12.72C334.78,184.5,330.5,194.46,325.5,203.45z M389.16,138.33   c-4.28,4.28-11.21,4.28-15.48,0s-4.28-11.21,0-15.48c4.28-4.28,11.21-4.28,15.48,0C393.44,127.12,393.44,134.05,389.16,138.33z    M340.31,166.82c-12.08,3.6-23.44,8.28-33.79,13.96c-3.32-7.8-11.27-13.05-20.2-13.05c-0.05,0-0.11,0-0.16,0l-0.19,0   c-12.47,0-23.86-8.54-27.07-20.3l-2.89-10.6l-2.89,10.6c-3.21,11.76-14.59,20.3-27.07,20.3l-0.19,0c-0.05,0-0.11,0-0.16,0   c-8.93,0-16.88,5.25-20.2,13.05c-10.35-5.68-21.71-10.36-33.79-13.96c-4.85-17.37-7.55-36.51-7.56-56.62   c8.38,16.38,25.34,27.21,44.67,27.21c21.68,0,40.19-13.82,47.2-33.1c7.01,19.29,25.52,33.1,47.2,33.1   c19.33,0,36.3-10.83,44.67-27.21C347.86,130.31,345.16,149.45,340.31,166.82z M166.82,171.69c3.6,12.08,8.28,23.44,13.96,33.79   c-7.85,3.34-13.11,11.36-13.05,20.34l0,0.21c0,12.47-8.54,23.86-20.31,27.07l-10.6,2.89l10.6,2.89c11.76,3.21,20.3,14.6,20.3,27.07   l0,0.19c-0.06,9,5.2,17.02,13.05,20.36c-5.68,10.35-10.36,21.71-13.96,33.79c-17.37,4.85-36.51,7.55-56.62,7.56   c16.38-8.38,27.21-25.34,27.21-44.67c0-21.68-13.82-40.19-33.1-47.2c19.29-7.01,33.1-25.52,33.1-47.2   c0-19.33-10.83-36.3-27.21-44.67C130.31,164.14,149.45,166.84,166.82,171.69z M171.69,345.18c12.08-3.6,23.44-8.28,33.79-13.96   c3.32,7.8,11.27,13.05,20.2,13.05c0.05,0,0.11,0,0.16,0l0.19,0c12.47,0,23.86,8.54,27.07,20.3l2.89,10.6l2.89-10.6   c3.21-11.76,14.59-20.3,27.07-20.3l0.19,0c0.05,0,0.11,0,0.16,0c8.93,0,16.88-5.25,20.2-13.05c10.35,5.68,21.71,10.36,33.79,13.96   c4.85,17.37,7.55,36.51,7.56,56.62c-8.38-16.38-25.34-27.21-44.67-27.21c-21.68,0-40.19,13.82-47.2,33.1   c-7.01-19.29-25.52-33.1-47.2-33.1c-19.33,0-36.3,10.83-44.67,27.21C164.14,381.69,166.84,362.55,171.69,345.18z M345.18,340.31   c-3.6-12.08-8.28-23.44-13.96-33.79c7.85-3.34,13.11-11.36,13.05-20.34v-0.21c0-12.47,8.54-23.86,20.3-27.07l10.6-2.89l-10.6-2.89   c-11.76-3.21-20.3-14.6-20.3-27.07l0-0.19c0.06-9-5.2-17.02-13.05-20.36c5.68-10.35,10.36-21.71,13.96-33.79   c17.37-4.85,36.51-7.55,56.62-7.56c-16.38,8.38-27.21,25.34-27.21,44.67c0,21.68,13.82,40.19,33.1,47.2   c-19.29,7.01-33.1,25.52-33.1,47.2c0,19.33,10.83,36.3,27.21,44.67C381.69,347.86,362.55,345.16,345.18,340.31z M292.24,80.39   c13.78-7.66,31.5-4.79,43.1,6.97l0.33,0.34c3.31,3.31,6.92,6.2,10.76,8.71c-4.29,20.39-22.17,35-43.24,35   c-23.54,0-42.84-18.5-44.12-41.73C270.7,89.2,282.11,86.02,292.24,80.39z M176.33,87.7l0.33-0.33c11.6-11.76,29.32-14.64,43.1-6.98   c10.13,5.63,21.53,8.81,33.16,9.29c-1.29,23.23-20.58,41.73-44.12,41.73c-21.06,0-38.95-14.6-43.24-35   C169.41,93.91,173.03,91.01,176.33,87.7z M80.39,219.76c-7.66-13.78-4.79-31.5,6.99-43.11l0.32-0.32c3.31-3.31,6.2-6.92,8.71-10.76   c20.4,4.29,35,22.17,35,43.24c0,23.54-18.5,42.84-41.73,44.12C89.2,241.3,86.02,229.89,80.39,219.76z M87.37,335.34   c-11.77-11.6-14.63-29.33-6.98-43.1c5.63-10.13,8.81-21.53,9.29-33.16c23.23,1.29,41.73,20.58,41.73,44.12   c0,21.06-14.6,38.95-35,43.24c-2.5-3.84-5.4-7.46-8.71-10.77L87.37,335.34z M219.76,431.61c-13.77,7.65-31.5,4.79-43.1-6.97   l-0.33-0.34c-3.31-3.31-6.92-6.21-10.76-8.71c4.29-20.39,22.18-34.99,43.24-34.99c23.54,0,42.84,18.5,44.12,41.73   C241.3,422.8,229.89,425.98,219.76,431.61z M335.67,424.3l-0.33,0.33c-11.6,11.76-29.32,14.64-43.1,6.98   c-10.13-5.63-21.53-8.81-33.16-9.29c1.29-23.23,20.58-41.73,44.12-41.73c21.06,0,38.94,14.6,43.24,35   C342.59,418.09,338.97,420.99,335.67,424.3z M424.62,335.35l-0.32,0.32c-3.31,3.31-6.2,6.92-8.71,10.76   c-20.39-4.29-35-22.17-35-43.24c0-23.54,18.5-42.84,41.73-44.12c0.48,11.63,3.66,23.04,9.29,33.17   C439.26,306.02,436.39,323.74,424.62,335.35z"/><path d="M256,435.6c-17.48,0-31.7,14.22-31.7,31.7c0,17.48,14.22,31.7,31.7,31.7s31.7-14.22,31.7-31.7   C287.7,449.82,273.48,435.6,256,435.6z M256,493c-14.17,0-25.7-11.53-25.7-25.7s11.53-25.7,25.7-25.7s25.7,11.53,25.7,25.7   S270.17,493,256,493z"/><path d="M467.3,224.3c-17.48,0-31.7,14.22-31.7,31.7s14.22,31.7,31.7,31.7S499,273.48,499,256S484.78,224.3,467.3,224.3z    M467.3,281.7c-14.17,0-25.7-11.53-25.7-25.7s11.53-25.7,25.7-25.7S493,241.83,493,256S481.47,281.7,467.3,281.7z"/><path d="M44.7,224.3C27.22,224.3,13,238.52,13,256s14.22,31.7,31.7,31.7s31.7-14.22,31.7-31.7S62.18,224.3,44.7,224.3z M44.7,281.7   C30.53,281.7,19,270.17,19,256s11.53-25.7,25.7-25.7s25.7,11.53,25.7,25.7S58.87,281.7,44.7,281.7z"/></g><text x="0" y="527" fill="#000000" font-size="5px" font-weight="bold" font-family="'Helvetica Neue', Helvetica, Arial-Unicode, Arial, Sans-serif">Created by iconfield</text><text x="0" y="532" fill="#000000" font-size="5px" font-weight="bold" font-family="'Helvetica Neue', Helvetica, Arial-Unicode, Arial, Sans-serif">from the Noun Project</text></svg>