<svg xmlns="http://www.w3.org/2000/svg" viewBox="0 0 100 125" x="0px" y="0px"><g data-name="zoo"><path d="M21.33589,31.54751l.43787-7.80684c.07566-1.34934,1.19191-2.40471,2.5434-2.40471h7.23029c.40297,0,.80092,.02129,1.19295,.06244,.41508-2.36649,1.28495-4.66879,2.60968-6.76638-1.33854-.30224-2.73105-.46209-4.16093-.46209h-9.36291c-4.22852,0-7.65631,3.42786-7.65631,7.65631v9.36298c0,1.42988,.15985,2.8224,.46209,4.16093,2.09759-1.32473,4.39982-2.19467,6.76638-2.60975-.04115-.39203-.06251-.78998-.06251-1.19288Z"/><path d="M16.68351,57.22066l-5.05932-5.49523c-.8978-.97509-.8978-2.47575,0-3.45084l5.05932-5.49523c.28492-.28492,.58137-.55129,.88771-.79936-1.37995-1.96691-2.39273-4.20989-2.9392-6.62985-1.1602,.73275-2.25789,1.60438-3.26899,2.61541l-6.62053,6.6206c-2.98999,2.98999-2.98999,7.8377,0,10.82769l6.62053,6.62053c1.0111,1.0111,2.10879,1.88266,3.26899,2.61548,.54647-2.41995,1.55932-4.663,2.9392-6.62985-.30634-.24807-.60279-.51444-.88771-.79936Z"/><path d="M31.54745,78.66405h-7.66412c-1.4069,0-2.54744-1.14054-2.54744-2.54737v-7.66419c0-.40297,.02136-.80086,.06251-1.19295-2.36656-.41508-4.66879-1.28495-6.76638-2.60968-.30224,1.33854-.46209,2.73105-.46209,4.161v9.36285c0,4.22852,3.42779,7.65637,7.65631,7.65637h9.36291c1.42988,0,2.8224-.15985,4.16093-.46215-1.32473-2.09752-2.19467-4.39982-2.60968-6.76638-.39209,.04121-.78998,.06251-1.19295,.06251Z"/><path d="M57.22066,83.31643l-4.91712,5.34066c-.95504,1.03734-2.57107,1.10153-3.60535,.14324l-5.91884-5.48391c-.28492-.28492-.55129-.58137-.79936-.88765-1.96685,1.37988-4.20996,2.39273-6.62991,2.93914,.73275,1.16026,1.60438,2.25796,2.61548,3.26905l6.6206,6.62053c2.98999,2.98999,7.8377,2.98999,10.82769,0l6.62053-6.62053c1.0111-1.0111,1.88266-2.10885,2.61548-3.26905-2.41995-.54647-4.66306-1.55926-6.62991-2.93914-.24807,.30628-.51444,.60273-.79929,.88765Z"/><path d="M78.66398,68.45249l.42185,7.52153c.08191,1.46062-1.08044,2.69003-2.5434,2.69003h-8.08994c-.40297,0-.80086-.02129-1.19295-.06251-.41508,2.36656-1.28495,4.66879-2.60968,6.76638,1.33854,.30224,2.73105,.46215,4.16093,.46215h9.36291c4.22845,0,7.65631-3.42786,7.65631-7.65637v-9.36285c0-1.42995-.15985-2.82246-.46215-4.161-2.09752,1.3248-4.39982,2.19467-6.76632,2.60975,.04115,.39203,.06244,.78992,.06244,1.19288Z"/><path d="M95.25751,44.58615l-6.6206-6.6206c-1.0111-1.01103-2.10879-1.88266-3.26899-2.61541-.54647,2.41995-1.55932,4.663-2.9392,6.62991,.30634,.24807,.60279,.51437,.88771,.79929l5.77651,5.35206c1.08812,1.0081,1.08812,2.72909,0,3.73726l-5.77651,5.35199c-.28492,.28492-.58137,.55129-.88771,.79936,1.37988,1.96685,2.39273,4.20989,2.93914,6.62985,1.16026-.73275,2.25796-1.60438,3.26905-2.61548l6.6206-6.62053c2.98999-2.98999,2.98999-7.8377,0-10.82769Z"/><path d="M68.45249,21.33595h8.08994c1.46296,0,2.62531,1.22935,2.5434,2.69003l-.42185,7.52153c0,.4029-.02129,.80086-.06244,1.19288,2.36649,.41508,4.66879,1.28495,6.76638,2.60975,.30224-1.33854,.46209-2.73105,.46209-4.16093v-9.36298c0-4.22845-3.42786-7.65631-7.65631-7.65631h-9.36291c-1.42988,0-2.8224,.15991-4.16093,.46215,1.32473,2.09752,2.1946,4.39982,2.60968,6.76632,.39203-.04115,.78998-.06244,1.19295-.06244Z"/><path d="M78.60154,32.7404c-5.83505-1.02334-12.0601,.7181-16.56716,5.22516,4.50706-4.50706,6.24849-10.73211,5.22516-16.56716-2.61365,.27463-4.96146,1.44115-6.73363,3.18975-.01667-2.48962-.85197-4.97461-2.50596-7.01686-4.8496,3.40233-8.01995,9.0356-8.01995,15.4095,0-6.3739-3.17041-12.00717-8.02001-15.4095-1.65399,2.04225-2.48929,4.52724-2.50596,7.01686-1.77223-1.7486-4.12004-2.91511-6.73363-3.18975-1.02334,5.83505,.7181,12.0601,5.22516,16.56716-4.50706-4.50706-10.73218-6.24849-16.56716-5.22516,.27457,2.61365,1.44115,4.96146,3.18975,6.73363-2.48962,.01673-4.97468,.85197-7.01693,2.50596,3.4024,4.8496,9.0356,8.02001,15.40956,8.02001-6.37396,0-12.00717,3.17035-15.40956,8.02001,2.04225,1.65393,4.52731,2.48923,7.01693,2.5059-1.74866,1.77217-2.91518,4.12004-3.18975,6.73363,5.83498,1.0234,12.0601-.7181,16.56716-5.22516-4.50699,4.50706-6.24856,10.73211-5.22516,16.56716,2.61359-.27457,4.9614-1.44108,6.73363-3.18968,.01673,2.48962,.85197,4.97461,2.50596,7.01693,4.8496-3.40233,8.02001-9.0356,8.02001-15.40956,0,6.37396,3.17035,12.00723,8.01995,15.40956,1.65399-2.04231,2.48929-4.52731,2.50596-7.01693,1.77217,1.7486,4.12004,2.91511,6.73363,3.18968,1.0234-5.83505-.7181-12.0601-5.22516-16.56716,4.50706,4.50706,10.73211,6.24856,16.56716,5.22522-.27457-2.61365-1.44115-4.96153-3.18968-6.7337,2.48962-.01667,4.97461-.85197,7.01686-2.5059-3.40233-4.84967-9.0356-8.02001-15.4095-8.02001,6.3739,0,12.0071-3.17035,15.4095-8.01995-2.04225-1.65399-4.52731-2.48929-7.01686-2.50603,1.7486-1.77217,2.91511-4.12004,3.18968-6.73363Zm-15.39941,14.19174c-1.69436,1.6943-1.69436,4.44143,0,6.13579l4.0981,4.0981h-5.79559c-2.39619,0-4.33868,1.9425-4.33868,4.33868v5.79559l-4.0981-4.0981c-1.69436-1.69436-4.44143-1.69436-6.13579,0l-4.0981,4.0981v-5.79559c0-2.39619-1.9425-4.33868-4.33868-4.33868h-5.79559l4.0981-4.0981c1.69436-1.69436,1.69436-4.44149,0-6.13579l-4.0981-4.09817h5.79559c2.39619,0,4.33868-1.9425,4.33868-4.33862v-5.79565l4.0981,4.0981c1.69436,1.69436,4.44143,1.69436,6.13579,0l4.0981-4.0981v5.79565c0,2.39612,1.9425,4.33862,4.33868,4.33862h5.79559l-4.0981,4.09817Z"/><path d="M42.77934,16.68357l5.91884-5.48391c1.03428-.95829,2.65031-.89409,3.60535,.14318l4.91712,5.34073c.28486,.28492,.55122,.58137,.79929,.88771,1.96685-1.37995,4.20996-2.39273,6.62991-2.9392-.73282-1.1602-1.60438-2.25796-2.61548-3.26899l-6.6206-6.6206c-2.98993-2.98999-7.8377-2.98999-10.82769,0l-6.62053,6.6206c-1.0111,1.01103-1.88273,2.10872-2.61548,3.26892,2.41995,.54647,4.66306,1.55932,6.62991,2.93927,.24807-.30634,.51444-.60279,.79936-.88771Z"/></g><text x="0" y="115" fill="#000000" font-size="5px" font-weight="bold" font-family="'Helvetica Neue', Helvetica, Arial-Unicode, Arial, Sans-serif">Created by Eliricon</text><text x="0" y="120" fill="#000000" font-size="5px" font-weight="bold" font-family="'Helvetica Neue', Helvetica, Arial-Unicode, Arial, Sans-serif">from the Noun Project</text></svg>