<svg xmlns="http://www.w3.org/2000/svg" version="1.1" viewBox="-5.0 -10.0 110.0 135.0">
 <path d="m86.18 36.184c-3.6914-3.6914-8.6016-5.7227-13.82-5.7227-1.043 0-2.0664 0.10547-3.0781 0.26562 0.16016-1.0117 0.26562-2.0352 0.26562-3.0781 0-5.2188-2.0312-10.129-5.7227-13.82l-13.824-13.828-13.82 13.82c-3.6914 3.6914-5.7227 8.6016-5.7227 13.82 0 1.043 0.10547 2.0664 0.26562 3.0781-1.0117-0.16016-2.0352-0.26562-3.0781-0.26562-5.2188 0-10.129 2.0312-13.82 5.7227l-13.824 13.824 13.82 13.82c3.8125 3.8086 8.8164 5.7148 13.82 5.7148 1.0312 0 2.0586-0.10156 3.0859-0.26562-0.16016 1.0117-0.26562 2.043-0.26562 3.0898 0 5.2188 2.0312 10.129 5.7227 13.82l13.816 13.82 13.82-13.816c3.6914-3.6914 5.7227-8.6016 5.7227-13.82 0-1.0469-0.10547-2.0742-0.26562-3.0898 1.0195 0.16406 2.0508 0.26562 3.0859 0.26562 5.0039 0 10.008-1.9062 13.82-5.7148l13.816-13.824zm-48.27-8.543c0-3.2266 1.2617-6.2695 3.5391-8.5469l8.5508-8.5547 8.5469 8.5469c2.2852 2.2852 3.5391 5.3203 3.5391 8.5469 0 3.207-1.2461 6.2227-3.5039 8.5039-0.011719 0.011719-0.027343 0.023437-0.039062 0.035156s-0.023438 0.027344-0.035157 0.039063c-4.7031 4.6602-12.309 4.6602-17.012 0-0.011719-0.011719-0.023438-0.027344-0.035156-0.039063-0.011719-0.011719-0.027344-0.023437-0.039063-0.035156-2.2617-2.2734-3.5117-5.2891-3.5117-8.4961zm15.184 19.281c-0.32422 2.043-0.32422 4.1211 0 6.1641-1.0156-0.16016-2.043-0.26563-3.0938-0.26563-1.0469 0-2.0742 0.10547-3.0938 0.26563 0.32422-2.043 0.32422-4.1211 0-6.1641 1.0156 0.16016 2.043 0.26562 3.0938 0.26562 1.0469-0.003906 2.0742-0.10938 3.0938-0.26562zm-25.453 15.172c-3.2266 0-6.2656-1.2578-8.5469-3.5391l-8.5547-8.5547 8.5469-8.5469c2.2852-2.2852 5.3203-3.5391 8.5469-3.5391 3.2109 0 6.2227 1.2461 8.5039 3.5039 0.011719 0.011719 0.023437 0.027343 0.035156 0.039062s0.027344 0.023438 0.039063 0.035157c4.6602 4.7031 4.6602 12.309 0 17.012-0.011719 0.011719-0.027344 0.023438-0.039063 0.035156-0.011719 0.011719-0.023437 0.027344-0.035156 0.039063-2.2734 2.2656-5.2891 3.5156-8.4961 3.5156zm34.449 10.266c0 3.2266-1.2578 6.2695-3.5391 8.5469l-8.5508 8.5547-8.5469-8.5469c-2.2852-2.2852-3.5391-5.3203-3.5391-8.5469 0-3.207 1.2461-6.2227 3.5039-8.5039 0.011719-0.011719 0.027343-0.023437 0.039062-0.035156s0.023438-0.027344 0.035157-0.039063c2.3516-2.3281 5.4297-3.5 8.5078-3.5s6.1523 1.1719 8.5078 3.5c0.011719 0.011719 0.023438 0.027344 0.035157 0.039063s0.027343 0.023437 0.039062 0.035156c2.2578 2.2734 3.5078 5.293 3.5078 8.4961zm18.82-13.812c-2.2852 2.2852-5.3203 3.5391-8.5469 3.5391-3.2109 0-6.2227-1.2461-8.5039-3.5039-0.011719-0.011719-0.023437-0.027343-0.035156-0.039062s-0.027344-0.023438-0.039063-0.035157c-4.6602-4.7031-4.6602-12.309 0-17.012 0.011719-0.011719 0.027344-0.023438 0.039063-0.035156 0.011719-0.011719 0.023437-0.027344 0.035156-0.039063 2.2812-2.2578 5.2969-3.5039 8.5039-3.5039 3.2266 0 6.2656 1.2617 8.5469 3.5391l8.5469 8.5469z"/>
<text x="0.0" y="117.5" font-size="5.0" font-weight="bold" font-family="Arbeit Regular, Helvetica, Arial-Unicode, Arial, Sans-serif" fill="#000000">Created by dhtgicon</text><text x="0.0" y="122.5" font-size="5.0" font-weight="bold" font-family="Arbeit Regular, Helvetica, Arial-Unicode, Arial, Sans-serif" fill="#000000">from Noun Project</text></svg>