<svg xmlns="http://www.w3.org/2000/svg" version="1.1" viewBox="-5.0 -10.0 110.0 135.0">
 <path d="m88.012 38.09c-4.6953-4.6953-8.6445-6.9219-12.453-6.7539-4.7109 0.11328-7.8008 3.5078-10.785 6.7891-2.8516 3.1367-5.8047 6.3281-10.469 7.5781 1.2461-4.6797 4.4375-7.6641 7.5703-10.547 3.2852-3.0156 6.6797-6.1406 6.7852-10.875 0.078125-3.8086-2.0664-7.7695-6.7656-12.469l-11.902-11.812-11.898 11.992c-4.6953 4.6953-6.8398 8.6523-6.7539 12.453 0.11328 4.7109 3.5078 7.8008 6.7891 10.785 3.1367 2.8516 6.3242 5.8047 7.5781 10.469-4.6797-1.2461-7.668-4.4375-10.547-7.5703-3.0156-3.2852-6.1406-6.6797-10.875-6.7852-3.6797-0.003906-7.7695 2.0625-12.469 6.7656l-11.816 11.902 11.992 11.898c4.6016 4.6016 8.4922 6.7539 12.219 6.7539 0.078124 0 0.15625 0 0.23047-0.003906 4.7109-0.11328 7.8008-3.5078 10.785-6.7891 2.8516-3.1367 5.8047-6.3242 10.469-7.5781-1.2461 4.6797-4.4375 7.6641-7.5703 10.547-3.2852 3.0156-6.6797 6.1406-6.7852 10.875-0.078125 3.8086 2.0664 7.7695 6.7656 12.469l11.906 11.816 11.898-11.988c4.6953-4.6953 6.8398-8.6523 6.7539-12.453-0.11328-4.7148-3.5078-7.8008-6.7891-10.789-3.1328-2.8516-6.3242-5.8047-7.5742-10.465 4.6797 1.2461 7.6641 4.4375 10.543 7.5703 3.0195 3.2852 6.1406 6.6797 10.879 6.7852h0.20312c3.7461 0 7.6484-2.1523 12.266-6.7695l11.812-11.902zm-58.301 18.766c-2.1055 2.3164-3.9258 4.3164-5.4453 4.3516-0.78516 0.054688-2.9727-0.53906-7.0117-4.5781l-6.7109-6.6562 6.5547-6.6055c4.0234-4.0234 6.2578-4.5156 7.0312-4.5703 1.5547 0.03125 3.4062 2.043 5.5469 4.3711 2.0078 2.1875 4.3828 4.7695 7.5352 6.8359-3.1484 2.0664-5.5039 4.6602-7.5 6.8516zm9.0859-32.586c-0.019531-0.88672 0.54297-2.9805 4.5781-7.0117l6.6562-6.7109 6.6055 6.5547c4.0234 4.0234 4.5938 6.1328 4.5703 7.0273-0.03125 1.5547-2.043 3.4062-4.3711 5.5469-2.1875 2.0078-4.7695 4.3828-6.8359 7.5352-2.0703-3.1445-4.6641-5.5039-6.8555-7.5-2.3164-2.1016-4.3164-3.9219-4.3477-5.4414zm22.41 51.461c0.019531 0.89062-0.54297 2.9805-4.5742 7.0156l-6.6602 6.707-6.6055-6.5547c-4.0234-4.0234-4.5938-6.1328-4.5703-7.0273 0.03125-1.5547 2.043-3.4062 4.3711-5.5469 2.1875-2.0078 4.7695-4.3828 6.8359-7.5352 2.0703 3.1445 4.6641 5.5039 6.8555 7.5 2.3125 2.1016 4.3125 3.9219 4.3477 5.4414zm21.699-19.094c-3.9609 3.9609-6.0625 4.5742-6.9883 4.5742-0.015625 0-0.027344-0.003907-0.039063-0.003907-1.5547-0.03125-3.4062-2.0391-5.5469-4.3711-2.0078-2.1875-4.3828-4.7695-7.5352-6.8359 3.1445-2.0703 5.5-4.6641 7.5-6.8594 2.1055-2.3164 3.9258-4.3164 5.4453-4.3516h0.046874c0.91406 0 3.0039 0.61719 6.9648 4.5742l6.707 6.6641z"/>
<text x="0.0" y="117.5" font-size="5.0" font-weight="bold" font-family="Arbeit Regular, Helvetica, Arial-Unicode, Arial, Sans-serif" fill="#000000">Created by dhtgicon</text><text x="0.0" y="122.5" font-size="5.0" font-weight="bold" font-family="Arbeit Regular, Helvetica, Arial-Unicode, Arial, Sans-serif" fill="#000000">from Noun Project</text></svg>