<svg xmlns="http://www.w3.org/2000/svg" xmlns:xlink="http://www.w3.org/1999/xlink" version="1.1" x="0px" y="0px" viewBox="0 0 512 640" style="enable-background:new 0 0 512 512;" xml:space="preserve"><g><ellipse transform="matrix(0.2588 -0.9659 0.9659 0.2588 126.5288 513.2604)" cx="397.71" cy="174.18" rx="9.89" ry="9.89"/><circle cx="256" cy="92.37" r="9.89"/><ellipse transform="matrix(0.9659 -0.2588 0.2588 0.9659 -41.1878 35.5155)" cx="114.29" cy="174.18" rx="9.89" ry="9.89"/><ellipse transform="matrix(0.2588 -0.9659 0.9659 0.2588 -241.597 360.7797)" cx="114.29" cy="337.82" rx="9.89" ry="9.89"/><circle cx="256" cy="419.63" r="9.89"/><ellipse transform="matrix(0.9659 -0.2588 0.2588 0.9659 -73.8816 114.4464)" cx="397.71" cy="337.82" rx="9.89" ry="9.89"/><path d="M449.89,331.7c1.59-2.07,3.04-4.22,4.31-6.42c12.94-22.42,9.69-50.48-7.71-69.28c17.4-18.81,20.65-46.86,7.71-69.28   c-1.27-2.2-2.72-4.35-4.31-6.42c7.05-12.12,12.69-26.66,16.87-43.58l0.69-2.8l-2.77-0.8c-16.74-4.84-32.15-7.22-46.17-7.18   c-1-2.41-2.13-4.74-3.4-6.94c-12.94-22.42-38.87-33.63-63.86-27.96c-7.59-24.48-30.26-41.32-56.15-41.32   c-2.54,0-5.13,0.18-7.71,0.52c-6.97-12.17-16.74-24.32-29.3-36.4l-2.08-2l-2.08,2c-12.56,12.08-22.33,24.24-29.3,36.4   c-2.59-0.34-5.17-0.52-7.71-0.52c-25.89,0-48.56,16.84-56.15,41.32c-24.99-5.67-50.91,5.54-63.86,27.96   c-1.27,2.2-2.41,4.53-3.4,6.94c-14.02-0.05-29.43,2.34-46.18,7.18l-2.77,0.8l0.69,2.8c4.18,16.92,9.82,31.46,16.87,43.58   c-1.59,2.07-3.04,4.22-4.31,6.42c-12.94,22.42-9.69,50.48,7.71,69.28c-17.4,18.81-20.65,46.86-7.71,69.28   c1.27,2.2,2.72,4.35,4.31,6.42c-7.05,12.12-12.69,26.66-16.87,43.58l-0.69,2.8l2.77,0.8c16.58,4.79,31.86,7.19,45.77,7.19   c0.14,0,0.27-0.01,0.4-0.01c1,2.41,2.13,4.74,3.4,6.94c12.94,22.42,38.87,33.63,63.86,27.96c7.59,24.48,30.26,41.32,56.15,41.32   c2.54,0,5.13-0.18,7.71-0.52c6.97,12.17,16.74,24.32,29.3,36.4l2.08,2l2.08-2c12.56-12.08,22.33-24.23,29.3-36.4   c2.59,0.34,5.17,0.52,7.71,0.52c25.89,0,48.56-16.84,56.15-41.32c4.32,0.98,8.67,1.46,12.97,1.46c20.59,0,40.18-10.88,50.88-29.42   c1.27-2.2,2.41-4.53,3.4-6.94c0.14,0,0.27,0.01,0.4,0.01c13.91,0,29.19-2.39,45.77-7.19l2.77-0.8l-0.69-2.8   C462.58,358.36,456.94,343.82,449.89,331.7z M449,189.72c12.07,20.91,8.46,47.29-8.8,64.14L438,256l2.2,2.15   c17.25,16.85,20.87,43.22,8.8,64.14c-0.77,1.33-1.61,2.64-2.52,3.93c-9.42-14.28-21.07-24.73-34.88-31.2   c-12.73-5.97-25.71-7.85-37.44-7.66c12.14-6.97,24.27-16.73,36.33-29.26l2-2.08l-2-2.08c-12.06-12.54-24.19-22.3-36.34-29.27   c0.52,0.01,1.04,0.02,1.56,0.02c11.32,0,23.71-1.97,35.88-7.68c13.81-6.48,25.46-16.92,34.88-31.2   C447.39,187.07,448.23,188.38,449,189.72z M203.45,164.98c15.14-8.74,34.1-6.57,46.86,4.84c0.8,1.2,1.55,2.43,2.27,3.68   c-0.48,0.93-0.95,1.87-1.4,2.82c-11.38,24.27-7.9,49.43-3.57,65.15c-11.45-11.62-31.5-27.21-58.21-29.49   c-1.05-0.09-2.09-0.15-3.14-0.2c-0.72-1.25-1.41-2.51-2.05-3.81C180.71,191.23,188.31,173.72,203.45,164.98z M256,331.76   c-11.8-26.66-4.47-55.03,0-67.68C260.47,276.73,267.8,305.1,256,331.76z M150.9,256c0-17.48,11.36-32.82,27.62-38.16   c1.44-0.09,2.88-0.13,4.32-0.13c0.56,0.88,1.14,1.76,1.74,2.62c15.33,21.99,38.85,31.56,54.64,35.67   c-15.78,4.11-39.31,13.68-54.64,35.67c-0.6,0.86-1.18,1.74-1.74,2.62c-1.44,0-2.88-0.04-4.32-0.13   C162.26,288.82,150.9,273.48,150.9,256z M256,180.24c11.8,26.66,4.47,55.03,0,67.68C251.53,235.27,244.2,206.9,256,180.24z    M190.39,218.12c28.99,3.11,49.9,23.64,58.61,33.84C235.81,249.51,207.58,241.67,190.39,218.12z M249,260.04   c-8.72,10.2-29.62,30.73-58.61,33.84C207.58,270.33,235.81,262.49,249,260.04z M329.17,294.29c-0.56-0.88-1.14-1.76-1.74-2.62   c-15.33-21.99-38.85-31.56-54.64-35.67c15.78-4.11,39.31-13.68,54.64-35.67c0.6-0.86,1.18-1.74,1.74-2.62   c1.44,0,2.87,0.04,4.31,0.13c16.26,5.34,27.62,20.68,27.62,38.16c0,17.48-11.36,32.82-27.62,38.16   C332.04,294.25,330.6,294.29,329.17,294.29z M321.61,293.88c-29-3.11-49.91-23.65-58.62-33.85   C276.17,262.46,304.39,270.28,321.61,293.88z M263,251.96c8.72-10.2,29.62-30.73,58.61-33.84   C304.42,241.67,276.19,249.51,263,251.96z M308.55,164.98c15.14,8.74,22.74,26.25,19.24,43c-0.64,1.29-1.33,2.55-2.05,3.8   c-1.05,0.05-2.1,0.11-3.14,0.2c-26.71,2.28-46.76,17.87-58.21,29.49c4.34-15.72,7.81-40.89-3.57-65.15   c-0.45-0.95-0.92-1.89-1.4-2.82c0.72-1.25,1.47-2.47,2.27-3.68C274.45,158.41,293.41,156.24,308.55,164.98z M203.45,347.02   c-15.14-8.74-22.74-26.25-19.24-43c0.64-1.29,1.33-2.56,2.05-3.8c1.05-0.05,2.1-0.11,3.14-0.2c26.71-2.28,46.76-17.87,58.21-29.49   c-4.34,15.72-7.81,40.88,3.57,65.15c0.45,0.95,0.92,1.89,1.4,2.82c-0.72,1.24-1.47,2.47-2.27,3.68   C237.55,353.59,218.59,355.76,203.45,347.02z M259.42,338.51c0.48-0.93,0.95-1.87,1.4-2.82c11.38-24.27,7.9-49.43,3.57-65.15   c11.45,11.62,31.5,27.21,58.21,29.49c1.05,0.09,2.1,0.15,3.14,0.2c0.72,1.24,1.4,2.51,2.05,3.8c3.5,16.75-4.1,34.26-19.24,43   c-15.14,8.74-34.1,6.57-46.86-4.83C260.9,340.98,260.14,339.75,259.42,338.51z M460.22,138.1c-9.77,37.39-26.96,62.09-51.11,73.44   c-18.17,8.54-37.28,7.94-51.78,5.26c-5.29-1.9-10.57-3.28-15.85-4.12c-2.75-0.93-4.92-1.78-6.34-2.37   c0.19-1.52,0.54-3.82,1.11-6.66c1.92-5,3.37-10.27,4.37-15.81c4.93-13.9,13.97-30.74,30.44-42.2   C392.96,130.39,422.95,127.86,460.22,138.1z M295.1,55.72c24.15,0,45.18,16.32,51.15,39.69l0.76,2.98l2.96-0.83   c23.22-6.52,47.87,3.54,59.94,24.45c0.77,1.33,1.48,2.72,2.14,4.14c-17.08,1.02-31.95,5.88-44.46,14.6   c-11.53,8.04-19.65,18.33-25.35,28.59c0.04-14-2.35-29.38-7.18-46.09l-0.8-2.77l-2.8,0.69c-16.9,4.18-31.42,9.81-43.53,16.84   c6.03-10.07,10.91-22.24,12.1-36.27c1.3-15.2-1.92-30.5-9.58-45.8C292,55.79,293.56,55.72,295.1,55.72z M256,20.19   c27.5,27.15,40.3,54.39,38.05,80.99c-1.69,20-11.76,36.25-21.33,47.47c-4.3,3.63-8.13,7.52-11.5,11.68c-2.18,1.92-4,3.37-5.22,4.3   c-1.22-0.93-3.04-2.38-5.22-4.3c-3.36-4.16-7.2-8.05-11.5-11.68c-9.58-11.22-19.64-27.47-21.33-47.47   C215.7,74.58,228.5,47.34,256,20.19z M102.1,122c12.07-20.91,36.72-30.96,59.94-24.45l2.96,0.83l0.76-2.98   c5.97-23.37,27-39.69,51.15-39.69c1.54,0,3.09,0.08,4.66,0.22c-7.66,15.3-10.88,30.61-9.58,45.8c1.2,14.02,6.07,26.19,12.1,36.27   c-12.11-7.04-26.63-12.67-43.53-16.84l-2.8-0.69l-0.8,2.77c-4.83,16.71-7.22,32.1-7.18,46.1c-5.7-10.25-13.82-20.55-25.36-28.59   c-12.51-8.72-27.38-13.59-44.46-14.6C100.62,124.72,101.33,123.33,102.1,122z M140.94,145.64c16.48,11.47,25.52,28.31,30.44,42.21   c1,5.53,2.45,10.8,4.36,15.79c0.57,2.85,0.92,5.15,1.11,6.67c-1.41,0.59-3.58,1.44-6.34,2.37c-5.27,0.83-10.55,2.21-15.84,4.11   c-14.5,2.69-33.62,3.28-51.79-5.25c-24.16-11.35-41.35-36.05-51.11-73.44C89.05,127.86,119.04,130.39,140.94,145.64z M63,322.28   c-12.07-20.91-8.46-47.29,8.8-64.14L74,256l-2.2-2.15C54.55,237,50.93,210.63,63,189.72c0.77-1.33,1.61-2.64,2.52-3.93   c9.42,14.28,21.07,24.73,34.88,31.2c12.17,5.71,24.57,7.68,35.88,7.68c0.52,0,1.04-0.01,1.56-0.02   c-12.15,6.97-24.28,16.73-36.34,29.27l-2,2.08l2,2.08c12.06,12.54,24.19,22.3,36.33,29.26c-11.73-0.19-24.71,1.69-37.44,7.66   c-13.81,6.48-25.46,16.92-34.88,31.2C64.62,324.93,63.77,323.62,63,322.28z M102.9,300.46c18.15-8.53,37.24-7.94,51.73-5.26   c5.3,1.91,10.6,3.29,15.9,4.12c2.75,0.93,4.92,1.78,6.34,2.37c-0.2,1.52-0.54,3.82-1.11,6.67c-1.92,4.99-3.37,10.26-4.36,15.79   c-4.92,13.9-13.96,30.74-30.44,42.21c-21.91,15.25-51.9,17.78-89.16,7.54C61.55,336.51,78.74,311.81,102.9,300.46z M216.91,456.28   c-24.15,0-45.18-16.32-51.15-39.69l-0.76-2.98l-2.96,0.83c-23.22,6.52-47.87-3.54-59.94-24.45c-0.77-1.33-1.48-2.72-2.14-4.14   c17.08-1.02,31.95-5.88,44.46-14.61c11.53-8.04,19.65-18.34,25.36-28.59c-0.04,14,2.35,29.38,7.18,46.1l0.8,2.77l2.8-0.69   c16.9-4.18,31.42-9.81,43.53-16.84c-6.03,10.07-10.9,22.24-12.1,36.26c-1.3,15.2,1.92,30.5,9.58,45.81   C220,456.21,218.44,456.28,216.91,456.28z M256,491.81c-27.5-27.15-40.3-54.39-38.05-80.99c1.69-20,11.75-36.25,21.33-47.46   c4.3-3.63,8.14-7.53,11.5-11.68c2.18-1.92,4-3.37,5.21-4.3c1.22,0.93,3.03,2.38,5.21,4.3c3.37,4.16,7.21,8.05,11.5,11.68   c9.57,11.21,19.64,27.46,21.33,47.46C296.3,437.42,283.5,464.66,256,491.81z M409.9,390c-12.07,20.91-36.73,30.96-59.94,24.45   l-2.96-0.83l-0.76,2.98c-5.97,23.37-27,39.69-51.15,39.69c-1.54,0-3.09-0.08-4.66-0.22c7.66-15.3,10.88-30.61,9.58-45.81   c-1.2-14.02-6.07-26.19-12.1-36.26c12.11,7.04,26.63,12.67,43.53,16.84l2.8,0.69l0.8-2.77c4.83-16.71,7.22-32.09,7.18-46.09   c5.7,10.25,13.82,20.55,25.35,28.59c12.51,8.72,27.38,13.59,44.46,14.61C411.38,387.28,410.67,388.67,409.9,390z M371.06,366.36   c-16.47-11.46-25.51-28.3-30.44-42.2c-1-5.54-2.45-10.82-4.37-15.81c-0.57-2.84-0.92-5.14-1.11-6.66c1.41-0.59,3.58-1.44,6.33-2.37   c5.29-0.84,10.6-2.21,15.9-4.12c14.5-2.68,33.58-3.26,51.73,5.26c24.16,11.35,41.35,36.05,51.11,73.44   C422.95,384.14,392.96,381.61,371.06,366.36z"/><path d="M256,116.59c13.36,0,24.23-10.87,24.23-24.23S269.36,68.14,256,68.14s-24.23,10.87-24.23,24.23S242.64,116.59,256,116.59z    M256,74.14c10.05,0,18.23,8.18,18.23,18.23s-8.18,18.23-18.23,18.23s-18.23-8.18-18.23-18.23S245.95,74.14,256,74.14z"/><path d="M102.18,195.16c3.81,2.2,7.96,3.24,12.07,3.24c8.38,0,16.54-4.35,21.02-12.11c6.68-11.57,2.7-26.41-8.87-33.09   c-11.57-6.68-26.41-2.7-33.09,8.87c-3.24,5.6-4.09,12.13-2.42,18.38C92.56,186.7,96.57,191.93,102.18,195.16z M98.51,165.07   c3.37-5.84,9.51-9.11,15.81-9.11c3.09,0,6.22,0.79,9.08,2.44c8.7,5.02,11.7,16.19,6.67,24.9c-2.43,4.22-6.36,7.23-11.07,8.49   c-4.7,1.26-9.61,0.61-13.83-1.82c-4.22-2.43-7.23-6.36-8.49-11.07C95.43,174.2,96.07,169.29,98.51,165.07z"/><path d="M114.33,362.04c4.11,0,8.27-1.04,12.07-3.24c5.6-3.24,9.61-8.46,11.29-14.71c1.67-6.25,0.82-12.78-2.42-18.38   c-6.68-11.57-21.52-15.55-33.09-8.87c-11.57,6.68-15.55,21.52-8.87,33.09C97.79,357.69,105.95,362.04,114.33,362.04z    M105.18,322.03c8.7-5.02,19.87-2.03,24.9,6.67c2.43,4.22,3.08,9.13,1.82,13.83s-4.28,8.63-8.49,11.07   c-8.7,5.03-19.87,2.03-24.9-6.67C93.48,338.23,96.48,327.06,105.18,322.03z"/><path d="M256,395.41c-13.36,0-24.23,10.87-24.23,24.23s10.87,24.23,24.23,24.23s24.23-10.87,24.23-24.23S269.36,395.41,256,395.41z    M256,437.86c-10.05,0-18.23-8.18-18.23-18.23s8.18-18.23,18.23-18.23s18.23,8.18,18.23,18.23S266.05,437.86,256,437.86z"/><path d="M409.82,316.84c-5.6-3.24-12.13-4.09-18.38-2.42c-6.25,1.67-11.47,5.68-14.71,11.29c-6.68,11.57-2.7,26.41,8.87,33.09   c3.81,2.2,7.96,3.24,12.07,3.24c8.38,0,16.54-4.35,21.02-12.11C425.37,338.36,421.39,323.52,409.82,316.84z M413.5,346.93   c-5.02,8.7-16.19,11.7-24.9,6.67c-8.7-5.02-11.7-16.19-6.67-24.9c2.43-4.22,6.36-7.23,11.07-8.49c4.7-1.26,9.61-0.61,13.83,1.82   C415.53,327.06,418.52,338.23,413.5,346.93z"/><path d="M403.98,150.78c-6.25-1.67-12.78-0.81-18.38,2.42c-5.6,3.24-9.61,8.46-11.29,14.71c-1.67,6.25-0.82,12.78,2.42,18.38   c4.48,7.76,12.64,12.11,21.02,12.11c4.11,0,8.27-1.04,12.07-3.24c5.6-3.24,9.61-8.46,11.29-14.71c1.67-6.25,0.82-12.78-2.42-18.38   S410.23,152.46,403.98,150.78z M406.82,189.97c-8.7,5.02-19.87,2.03-24.9-6.67c-2.43-4.22-3.08-9.13-1.82-13.83   s4.28-8.63,8.49-11.07c2.81-1.62,5.92-2.45,9.08-2.45c1.58,0,3.18,0.21,4.75,0.63c4.7,1.26,8.63,4.28,11.07,8.49   C418.52,173.77,415.53,184.94,406.82,189.97z"/></g><text x="0" y="527" fill="#000000" font-size="5px" font-weight="bold" font-family="'Helvetica Neue', Helvetica, Arial-Unicode, Arial, Sans-serif">Created by iconfield</text><text x="0" y="532" fill="#000000" font-size="5px" font-weight="bold" font-family="'Helvetica Neue', Helvetica, Arial-Unicode, Arial, Sans-serif">from the Noun Project</text></svg>